{
    "asset" : {
        "generator" : "Khronos glTF Blender I/O v0.9.36",
        "version" : "2.0"
    },
    "scene" : 0,
    "scenes" : [
        {
            "name" : "Scene",
            "nodes" : [
                0,
                1,
                2,
                3
            ]
        }
    ],
    "nodes" : [
        {
            "mesh" : 0,
            "name" : "Sphere"
        },
        {
            "mesh" : 1,
            "name" : "sticks"
        },
        {
            "name" : "Lamp",
            "rotation" : [
                0.16907575726509094,
                0.7558803558349609,
                -0.27217137813568115,
                0.570947527885437
            ],
            "translation" : [
                4.076245307922363,
                5.903861999511719,
                -1.0054539442062378
            ]
        },
        {
            "name" : "Camera",
            "rotation" : [
                0.48170700669288635,
                0.3342514932155609,
                -0.21292176842689514,
                0.7816000580787659
            ],
            "translation" : [
                7.481131553649902,
                5.34366512298584,
                6.5076398849487305
            ]
        }
    ],
    "materials" : [
        {
            "doubleSided" : true,
            "name" : "carbon",
            "pbrMetallicRoughness" : {}
        }
    ],
    "meshes" : [
        {
            "name" : "Sphere",
            "primitives" : [
                {
                    "attributes" : {
                        "POSITION" : 0,
                        "NORMAL" : 1
                    },
                    "indices" : 2,
                    "material" : 0
                }
            ]
        },
        {
            "name" : "Cylinder",
            "primitives" : [
                {
                    "attributes" : {
                        "POSITION" : 3,
                        "NORMAL" : 4
                    },
                    "indices" : 5
                }
            ]
        }
    ],
    "accessors" : [
        {
            "bufferView" : 0,
            "componentType" : 5126,
            "count" : 64,
            "max" : [
                2.275219440460205,
                1.5316022634506226,
                0.446696937084198
            ],
            "min" : [
                -0.5431694984436035,
                -0.5316022634506226,
                -0.44669684767723083
            ],
            "type" : "VEC3"
        },
        {
            "bufferView" : 1,
            "componentType" : 5126,
            "count" : 64,
            "type" : "VEC3"
        },
        {
            "bufferView" : 2,
            "componentType" : 5123,
            "count" : 360,
            "type" : "SCALAR"
        },
        {
            "bufferView" : 3,
            "componentType" : 5126,
            "count" : 109,
            "max" : [
                1.7820509672164917,
                1.0866024494171143,
                0.10000042617321014
            ],
            "min" : [
                -1.7820510864257812,
                -2,
                -0.10000002384185791
            ],
            "type" : "VEC3"
        },
        {
            "bufferView" : 4,
            "componentType" : 5126,
            "count" : 109,
            "type" : "VEC3"
        },
        {
            "bufferView" : 5,
            "componentType" : 5123,
            "count" : 144,
            "type" : "SCALAR"
        }
    ],
    "bufferViews" : [
        {
            "buffer" : 0,
            "byteLength" : 768,
            "byteOffset" : 0
        },
        {
            "buffer" : 0,
            "byteLength" : 768,
            "byteOffset" : 768
        },
        {
            "buffer" : 0,
            "byteLength" : 720,
            "byteOffset" : 1536
        },
        {
            "buffer" : 0,
            "byteLength" : 1308,
            "byteOffset" : 2256
        },
        {
            "buffer" : 0,
            "byteLength" : 1308,
            "byteOffset" : 3564
        },
        {
            "buffer" : 0,
            "byteLength" : 288,
            "byteOffset" : 4872
        }
    ],
    "buffers" : [
        {
            "byteLength" : 5160,
            "uri" : "graphene.bin"
        }
    ]
}
