{
    "asset" : {
        "generator" : "Khronos glTF Blender I/O v0.9.36",
        "version" : "2.0"
    },
    "scene" : 0,
    "scenes" : [
        {
            "name" : "Scene",
            "nodes" : [
                0,
                2,
                3
            ]
        }
    ],
    "nodes" : [
        {
            "name" : "Camera",
            "rotation" : [
                0.6690212488174438,
                -0.0031096050515770912,
                0.002799069741740823,
                0.7432315349578857
            ],
            "translation" : [
                16.038026809692383,
                17.15273094177246,
                30.996257781982422
            ]
        },
        {
            "mesh" : 0,
            "name" : "sticks"
        },
        {
            "children" : [
                1
            ],
            "mesh" : 1,
            "name" : "Sphere"
        },
        {
            "name" : "Lamp",
            "rotation" : [
                0.16907575726509094,
                0.7558803558349609,
                -0.27217137813568115,
                0.570947527885437
            ],
            "translation" : [
                4.076245307922363,
                5.903861999511719,
                -1.0054539442062378
            ]
        }
    ],
    "materials" : [
        {
            "doubleSided" : true,
            "name" : "carbon",
            "pbrMetallicRoughness" : {
                "baseColorFactor" : [
                    0.019999999552965164,
                    0.019999999552965164,
                    0.019999999552965164,
                    1
                ],
                "metallicFactor" : 0,
                "roughnessFactor" : 0.5
            }
        }
    ],
    "meshes" : [
        {
            "name" : "Cylinder",
            "primitives" : [
                {
                    "attributes" : {
                        "POSITION" : 0,
                        "NORMAL" : 1
                    },
                    "indices" : 2
                }
            ]
        },
        {
            "name" : "Sphere",
            "primitives" : [
                {
                    "attributes" : {
                        "POSITION" : 3,
                        "NORMAL" : 4
                    },
                    "indices" : 5,
                    "material" : 0
                }
            ]
        }
    ],
    "accessors" : [
        {
            "bufferView" : 0,
            "componentType" : 5126,
            "count" : 9856,
            "max" : [
                34.691001892089844,
                28.08660125732422,
                0.10000042617321014
            ],
            "min" : [
                -1.7820510864257812,
                -2,
                -0.10000002384185791
            ],
            "type" : "VEC3"
        },
        {
            "bufferView" : 1,
            "componentType" : 5126,
            "count" : 9856,
            "type" : "VEC3"
        },
        {
            "bufferView" : 2,
            "componentType" : 5123,
            "count" : 14400,
            "type" : "SCALAR"
        },
        {
            "bufferView" : 3,
            "componentType" : 5126,
            "count" : 6400,
            "max" : [
                35.18416976928711,
                28.53160285949707,
                0.446696937084198
            ],
            "min" : [
                -0.5431694984436035,
                -0.5316022634506226,
                -0.44669684767723083
            ],
            "type" : "VEC3"
        },
        {
            "bufferView" : 4,
            "componentType" : 5126,
            "count" : 6400,
            "type" : "VEC3"
        },
        {
            "bufferView" : 5,
            "componentType" : 5123,
            "count" : 36000,
            "type" : "SCALAR"
        }
    ],
    "bufferViews" : [
        {
            "buffer" : 0,
            "byteLength" : 118272,
            "byteOffset" : 0
        },
        {
            "buffer" : 0,
            "byteLength" : 118272,
            "byteOffset" : 118272
        },
        {
            "buffer" : 0,
            "byteLength" : 28800,
            "byteOffset" : 236544
        },
        {
            "buffer" : 0,
            "byteLength" : 76800,
            "byteOffset" : 265344
        },
        {
            "buffer" : 0,
            "byteLength" : 76800,
            "byteOffset" : 342144
        },
        {
            "buffer" : 0,
            "byteLength" : 72000,
            "byteOffset" : 418944
        }
    ],
    "buffers" : [
        {
            "byteLength" : 490944,
            "uri" : "data:application/octet-stream;base64,"
        }
    ]
}
