{
    "asset" : {
        "generator" : "Khronos glTF Blender I/O v0.9.36",
        "version" : "2.0"
    },
    "scene" : 0,
    "scenes" : [
        {
            "name" : "Scene",
            "nodes" : [
                0,
                1,
                2,
                3
            ]
        }
    ],
    "nodes" : [
        {
            "name" : "Camera",
            "rotation" : [
                0.483536034822464,
                0.33687159419059753,
                -0.20870360732078552,
                0.7804827094078064
            ],
            "translation" : [
                7.117835521697998,
                6.14911413192749,
                7.4561967849731445
            ]
        },
        {
            "mesh" : 0,
            "name" : "pencil",
            "translation" : [
                -0.2410561740398407,
                1.1908049583435059,
                0.5304058790206909
            ]
        },
        {
            "name" : "Light",
            "rotation" : [
                0.16907575726509094,
                0.7558803558349609,
                -0.27217137813568115,
                0.570947527885437
            ],
            "translation" : [
                3.8351891040802,
                7.094666957855225,
                -0.4750480651855469
            ]
        },
        {
            "mesh" : 1,
            "name" : "\u0426\u0438\u043b\u0438\u043d\u0434\u0440",
            "scale" : [
                1.0418344736099243,
                1,
                0.878394603729248
            ],
            "translation" : [
                -0.24044159054756165,
                2.6934762001037598,
                0.5331268310546875
            ]
        }
    ],
    "materials" : [
        {
            "doubleSided" : true,
            "name" : "\u041c\u0430\u0442\u0435\u0440\u0438\u0430\u043b",
            "pbrMetallicRoughness" : {
                "baseColorFactor" : [
                    0.8000000715255737,
                    0.10442765057086945,
                    0,
                    1
                ],
                "metallicFactor" : 0,
                "roughnessFactor" : 0.5
            }
        },
        {
            "doubleSided" : true,
            "name" : "\u041c\u0430\u0442\u0435\u0440\u0438\u0430\u043b.002",
            "pbrMetallicRoughness" : {
                "baseColorFactor" : [
                    0,
                    0,
                    0,
                    1
                ],
                "metallicFactor" : 0,
                "roughnessFactor" : 0.5
            }
        },
        {
            "doubleSided" : true,
            "name" : "Carbon",
            "pbrMetallicRoughness" : {
                "baseColorFactor" : [
                    0.8000000715255737,
                    0.01901841349899769,
                    0.6292538642883301,
                    1
                ],
                "metallicFactor" : 0,
                "roughnessFactor" : 0.5
            }
        },
        {
            "doubleSided" : true,
            "name" : "\u041c\u0430\u0442\u0435\u0440\u0438\u0430\u043b.001",
            "pbrMetallicRoughness" : {
                "baseColorFactor" : [
                    0.8000000715255737,
                    0,
                    0.22237737476825714,
                    1
                ],
                "metallicFactor" : 0,
                "roughnessFactor" : 0.5
            }
        },
        {
            "doubleSided" : true,
            "name" : "\u041c\u0430\u0442\u0435\u0440\u0438\u0430\u043b.003",
            "pbrMetallicRoughness" : {
                "baseColorFactor" : [
                    0.75,
                    0.75,
                    0.75,
                    1
                ],
                "metallicFactor" : 0,
                "roughnessFactor" : 0.5
            }
        }
    ],
    "meshes" : [
        {
            "name" : "\u0426\u0438\u043b\u0438\u043d\u0434\u0440.002",
            "primitives" : [
                {
                    "attributes" : {
                        "POSITION" : 0,
                        "NORMAL" : 1,
                        "TEXCOORD_0" : 2,
                        "COLOR_0" : 3
                    },
                    "indices" : 4,
                    "material" : 0
                },
                {
                    "attributes" : {
                        "POSITION" : 5,
                        "NORMAL" : 6,
                        "TEXCOORD_0" : 7,
                        "COLOR_0" : 8
                    },
                    "indices" : 9,
                    "material" : 1
                }
            ]
        },
        {
            "name" : "\u0426\u0438\u043b\u0438\u043d\u0434\u0440.001",
            "primitives" : [
                {
                    "attributes" : {
                        "POSITION" : 10,
                        "NORMAL" : 11,
                        "TEXCOORD_0" : 12
                    },
                    "indices" : 13,
                    "material" : 2
                },
                {
                    "attributes" : {
                        "POSITION" : 14,
                        "NORMAL" : 15,
                        "TEXCOORD_0" : 16
                    },
                    "indices" : 17,
                    "material" : 3
                },
                {
                    "attributes" : {
                        "POSITION" : 18,
                        "NORMAL" : 19,
                        "TEXCOORD_0" : 20
                    },
                    "indices" : 21,
                    "material" : 4
                }
            ]
        }
    ],
    "accessors" : [
        {
            "bufferView" : 0,
            "componentType" : 5126,
            "count" : 352,
            "max" : [
                0.05629165098071098,
                1.5,
                0.06199999898672104
            ],
            "min" : [
                -0.05629165098071098,
                -1.721342921257019,
                -0.06199999898672104
            ],
            "type" : "VEC3"
        },
        {
            "bufferView" : 1,
            "componentType" : 5126,
            "count" : 352,
            "type" : "VEC3"
        },
        {
            "bufferView" : 2,
            "componentType" : 5126,
            "count" : 352,
            "type" : "VEC2"
        },
        {
            "bufferView" : 3,
            "componentType" : 5126,
            "count" : 352,
            "type" : "VEC4"
        },
        {
            "bufferView" : 4,
            "componentType" : 5123,
            "count" : 588,
            "type" : "SCALAR"
        },
        {
            "bufferView" : 5,
            "componentType" : 5126,
            "count" : 18,
            "max" : [
                0.007787204347550869,
                -1.6888517141342163,
                0.01217750832438469
            ],
            "min" : [
                -0.013702977448701859,
                -1.8313429355621338,
                -0.007272157818078995
            ],
            "type" : "VEC3"
        },
        {
            "bufferView" : 6,
            "componentType" : 5126,
            "count" : 18,
            "type" : "VEC3"
        },
        {
            "bufferView" : 7,
            "componentType" : 5126,
            "count" : 18,
            "type" : "VEC2"
        },
        {
            "bufferView" : 8,
            "componentType" : 5126,
            "count" : 18,
            "type" : "VEC4"
        },
        {
            "bufferView" : 9,
            "componentType" : 5123,
            "count" : 18,
            "type" : "SCALAR"
        },
        {
            "bufferView" : 10,
            "componentType" : 5126,
            "count" : 48,
            "max" : [
                0.06527160108089447,
                0.14889803528785706,
                0.07037538290023804
            ],
            "min" : [
                -0.06726494431495667,
                -0.05110260844230652,
                -0.07570354640483856
            ],
            "type" : "VEC3"
        },
        {
            "bufferView" : 11,
            "componentType" : 5126,
            "count" : 48,
            "type" : "VEC3"
        },
        {
            "bufferView" : 12,
            "componentType" : 5126,
            "count" : 48,
            "type" : "VEC2"
        },
        {
            "bufferView" : 13,
            "componentType" : 5123,
            "count" : 102,
            "type" : "SCALAR"
        },
        {
            "bufferView" : 14,
            "componentType" : 5126,
            "count" : 60,
            "max" : [
                0.06211308389902115,
                0.21594008803367615,
                0.06689412891864777
            ],
            "min" : [
                -0.06410641968250275,
                0.14889803528785706,
                -0.07222229242324829
            ],
            "type" : "VEC3"
        },
        {
            "bufferView" : 15,
            "componentType" : 5126,
            "count" : 60,
            "type" : "VEC3"
        },
        {
            "bufferView" : 16,
            "componentType" : 5126,
            "count" : 60,
            "type" : "VEC2"
        },
        {
            "bufferView" : 17,
            "componentType" : 5123,
            "count" : 102,
            "type" : "SCALAR"
        },
        {
            "bufferView" : 18,
            "componentType" : 5126,
            "count" : 336,
            "max" : [
                0.07069927453994751,
                0.14889803528785706,
                0.0763576477766037
            ],
            "min" : [
                -0.0726926326751709,
                -0.05110260844230652,
                -0.08168581128120422
            ],
            "type" : "VEC3"
        },
        {
            "bufferView" : 19,
            "componentType" : 5126,
            "count" : 336,
            "type" : "VEC3"
        },
        {
            "bufferView" : 20,
            "componentType" : 5126,
            "count" : 336,
            "type" : "VEC2"
        },
        {
            "bufferView" : 21,
            "componentType" : 5123,
            "count" : 504,
            "type" : "SCALAR"
        }
    ],
    "bufferViews" : [
        {
            "buffer" : 0,
            "byteLength" : 4224,
            "byteOffset" : 0
        },
        {
            "buffer" : 0,
            "byteLength" : 4224,
            "byteOffset" : 4224
        },
        {
            "buffer" : 0,
            "byteLength" : 2816,
            "byteOffset" : 8448
        },
        {
            "buffer" : 0,
            "byteLength" : 5632,
            "byteOffset" : 11264
        },
        {
            "buffer" : 0,
            "byteLength" : 1176,
            "byteOffset" : 16896
        },
        {
            "buffer" : 0,
            "byteLength" : 216,
            "byteOffset" : 18072
        },
        {
            "buffer" : 0,
            "byteLength" : 216,
            "byteOffset" : 18288
        },
        {
            "buffer" : 0,
            "byteLength" : 144,
            "byteOffset" : 18504
        },
        {
            "buffer" : 0,
            "byteLength" : 288,
            "byteOffset" : 18648
        },
        {
            "buffer" : 0,
            "byteLength" : 36,
            "byteOffset" : 18936
        },
        {
            "buffer" : 0,
            "byteLength" : 576,
            "byteOffset" : 18972
        },
        {
            "buffer" : 0,
            "byteLength" : 576,
            "byteOffset" : 19548
        },
        {
            "buffer" : 0,
            "byteLength" : 384,
            "byteOffset" : 20124
        },
        {
            "buffer" : 0,
            "byteLength" : 204,
            "byteOffset" : 20508
        },
        {
            "buffer" : 0,
            "byteLength" : 720,
            "byteOffset" : 20712
        },
        {
            "buffer" : 0,
            "byteLength" : 720,
            "byteOffset" : 21432
        },
        {
            "buffer" : 0,
            "byteLength" : 480,
            "byteOffset" : 22152
        },
        {
            "buffer" : 0,
            "byteLength" : 204,
            "byteOffset" : 22632
        },
        {
            "buffer" : 0,
            "byteLength" : 4032,
            "byteOffset" : 22836
        },
        {
            "buffer" : 0,
            "byteLength" : 4032,
            "byteOffset" : 26868
        },
        {
            "buffer" : 0,
            "byteLength" : 2688,
            "byteOffset" : 30900
        },
        {
            "buffer" : 0,
            "byteLength" : 1008,
            "byteOffset" : 33588
        }
    ],
    "buffers" : [
        {
            "byteLength" : 34596,
            "uri" : "data:application/octet-stream;base64,"
        }
    ]
}
